<?xml version="1.0" encoding="UTF-8" standalone="no"?>
<svg
   version="1.1"
   width="1979"
   height="794"
   id="svg94"
   xmlns="http://www.w3.org/2000/svg"
   xmlns:svg="http://www.w3.org/2000/svg">
  <defs
     id="defs98" />
  <path
     d="M0 0 C0.83057922 -0.00081573 1.66115845 -0.00163147 2.51690674 -0.00247192 C4.91500335 -0.00220567 7.31287818 0.00665886 9.7109375 0.01953125 C10.79589508 0.02132889 10.79589508 0.02132889 11.902771 0.02316284 C15.60994286 0.05749359 19.01084502 0.38502151 22.625 1.1875 C23.676875 1.1875 24.72875 1.1875 25.8125 1.1875 C28.625 1.1875 28.625 1.1875 30.625 2.1875 C32.72564735 2.39383917 34.83097509 2.55390386 36.9375 2.6875 C40.93209678 2.94257117 44.71924186 3.31621549 48.625 4.1875 C49.73488281 4.41566406 50.84476563 4.64382812 51.98828125 4.87890625 C60.94225616 6.81902987 69.61908023 9.35791987 78.3125 12.25 C79.33964111 12.59039307 80.36678223 12.93078613 81.42504883 13.28149414 C86.36459543 14.95542672 91.00720513 16.74013312 95.625 19.1875 C96.91576238 19.78241158 98.21036785 20.36902508 99.5078125 20.94921875 C126.06945845 32.94309196 126.06945845 32.94309196 129.625 42.1875 C132.16865522 51.60779555 126.14638507 60.31573607 121.625 68.1875 C109.12370801 89.5880168 109.12370801 89.5880168 100.75 92.9375 C100.04875 93.02 99.3475 93.1025 98.625 93.1875 C97.1709375 93.373125 97.1709375 93.373125 95.6875 93.5625 C88.42829919 93.42408304 81.38749315 89.45012018 74.89453125 86.5078125 C60.85983222 80.15573262 46.61973187 75.42768381 31.43359375 72.73046875 C28.625 72.1875 28.625 72.1875 26.625 71.1875 C19.04036201 70.09230443 11.41971398 69.8649253 3.76855469 69.62988281 C1.62924286 69.56263337 -0.50951095 69.48470673 -2.6484375 69.40625 C-23.70837861 68.69480791 -48.20224901 72.65897869 -64.375 87.1875 C-71.92936714 95.15983418 -74.61384618 104.2848742 -74.375 115.1875 C-73.31807941 121.40673519 -71.04187385 126.12974296 -67.375 131.1875 C-67.375 131.8475 -67.375 132.5075 -67.375 133.1875 C-66.385 133.5175 -65.395 133.8475 -64.375 134.1875 C-64.375 134.8475 -64.375 135.5075 -64.375 136.1875 C-63.199375 136.5278125 -63.199375 136.5278125 -62 136.875 C-59.13382741 137.91275214 -56.78305356 139.00730163 -54.125 140.4375 C-39.57502288 147.80977667 -23.09998866 151.26214676 -7.375 155.1875 C-6.70259277 155.35789795 -6.03018555 155.5282959 -5.33740234 155.70385742 C-3.29319866 156.2076603 -1.24351034 156.67185382 0.8125 157.125 C1.98425781 157.38410156 1.98425781 157.38410156 3.1796875 157.6484375 C4.39011719 157.91527344 4.39011719 157.91527344 5.625 158.1875 C7.22927869 158.54115888 8.83344921 158.8953089 10.4375 159.25 C11.49904297 159.48396484 11.49904297 159.48396484 12.58203125 159.72265625 C16.18956692 160.54349133 19.72351487 161.49990511 23.26171875 162.58203125 C26.64885668 163.60616496 30.04120613 164.58786321 33.45703125 165.51171875 C51.76140528 170.49053771 69.16280368 176.67938047 85.625 186.1875 C85.625 186.8475 85.625 187.5075 85.625 188.1875 C86.7078125 188.33445312 86.7078125 188.33445312 87.8125 188.484375 C94.64476088 190.19244022 101.08736048 195.89358723 105.625 201.1875 C105.625 201.8475 105.625 202.5075 105.625 203.1875 C106.51058594 203.57421875 106.51058594 203.57421875 107.4140625 203.96875 C117.72426002 209.65210976 124.91243658 225.32089294 128.21191406 236.10595703 C133.68484551 255.58533317 135.1064257 276.53835705 129.625 296.1875 C129.2846875 297.42628906 128.944375 298.66507812 128.59375 299.94140625 C123.26578496 317.49129108 113.18539447 332.86875179 98.625 344.1875 C97.41263672 345.13689453 97.41263672 345.13689453 96.17578125 346.10546875 C69.96961801 365.88442699 37.57839913 374.89244207 5.0234375 376.01171875 C1.78262062 376.08842887 1.78262062 376.08842887 -0.70532227 376.69018555 C-3.68581463 377.24539935 -6.45691741 377.31706866 -9.48828125 377.3203125 C-10.65423828 377.32160156 -11.82019531 377.32289063 -13.02148438 377.32421875 C-14.83616211 377.31841797 -14.83616211 377.31841797 -16.6875 377.3125 C-17.88568359 377.31636719 -19.08386719 377.32023437 -20.31835938 377.32421875 C-26.44847748 377.3174638 -32.31146656 377.05278964 -38.375 376.1875 C-41.01975967 376.0233425 -43.66572102 375.87752426 -46.3125 375.75 C-51.36714053 375.47577123 -56.15296412 374.97672934 -61.05200195 373.67578125 C-63.61680737 373.13667344 -66.06274798 372.98636088 -68.6796875 372.84765625 C-76.23138836 372.25273628 -83.43739226 370.50290829 -90.75 368.625 C-91.44953796 368.44732086 -92.14907593 368.26964172 -92.86981201 368.08657837 C-153.34993344 352.64464407 -153.34993344 352.64464407 -167.375 332.1875 C-169.80948665 323.83647307 -167.7590799 316.18458157 -163.81640625 308.71484375 C-161.53850736 304.72080423 -158.99718782 300.96132436 -156.375 297.1875 C-155.65828125 296.10597656 -154.9415625 295.02445312 -154.203125 293.91015625 C-153.42746181 292.75235052 -152.65142106 291.59479764 -151.875 290.4375 C-151.1634375 289.37015625 -150.451875 288.3028125 -149.71875 287.203125 C-146.80751073 283.45733047 -143.6734465 280.33672325 -139.375 278.1875 C-132.2870455 277.41346441 -126.85236167 277.70777597 -120.83691406 281.6472168 C-97.29008133 296.3791652 -67.46069365 305.53327676 -39.91015625 308.734375 C-36.375 309.1875 -36.375 309.1875 -34.375 310.1875 C-8.38067049 311.63785878 19.73664195 310.98453821 42.625 297.1875 C43.63839104 296.20107281 44.64374513 295.20590016 45.625 294.1875 C46.285 294.1875 46.945 294.1875 47.625 294.1875 C47.90085937 293.61644531 48.17671875 293.04539062 48.4609375 292.45703125 C49.625 290.1875 49.625 290.1875 50.9140625 288.13671875 C55.30466449 280.70350661 55.65522966 273.67065233 54.625 265.1875 C53.65076557 261.91588484 52.34134067 259.125324 50.625 256.1875 C50.33367187 255.49011719 50.04234375 254.79273438 49.7421875 254.07421875 C48.34414763 251.71319338 47.10921829 251.27060074 44.625 250.1875 C43.38844343 249.30189518 42.15991081 248.40503031 40.9375 247.5 C28.59310455 239.2435528 13.90842886 235.53704364 -0.375 232.1875 C-1.468125 231.93049316 -2.56125 231.67348633 -3.6875 231.40869141 C-10.39784083 229.83781101 -17.11377672 228.29302376 -23.83569336 226.77246094 C-26.02297092 226.26859429 -28.19902329 225.73758608 -30.375 225.1875 C-32.44134733 224.67944781 -34.50776135 224.1716668 -36.57421875 223.6640625 C-39.07034644 223.04701229 -41.56643881 222.42981917 -44.0625 221.8125 C-45.30451172 221.50828125 -46.54652344 221.2040625 -47.82617188 220.890625 C-53.83042886 219.4014929 -59.73625125 217.83589514 -65.57885742 215.79980469 C-67.75374114 215.05838721 -69.95055532 214.52103965 -72.1875 214 C-100.61894298 206.39158568 -128.89292058 190.96368132 -144.52539062 165.29882812 C-152.30100032 151.77662073 -155.91604384 137.79200949 -156.375 122.1875 C-156.4265625 121.115 -156.478125 120.0425 -156.53125 118.9375 C-157.30977663 90.91054118 -147.37990927 64.32595069 -128.27734375 43.8125 C-127.21091185 42.70332695 -126.13936853 41.59904322 -125.0625 40.5 C-124.55879883 39.98219971 -124.05509766 39.46439941 -123.53613281 38.9309082 C-120.97698133 36.40551974 -119.0401111 34.56184626 -115.375 34.1875 C-115.375 33.5275 -115.375 32.8675 -115.375 32.1875 C-112.8135343 29.89101351 -111.89532428 29.1875 -108.375 29.1875 C-108.045 28.5275 -107.715 27.8675 -107.375 27.1875 C-89.01800552 12.05317788 -61.59612578 5.26785342 -38.375 2.1875 C-37.20710937 2.01089844 -36.03921875 1.83429688 -34.8359375 1.65234375 C-23.23996014 0.08371479 -11.67997145 -0.00549228 0 0 Z "
     fill="#091C40"
     transform="translate(339.375,199.8125)"
     id="path2" />
  <path
     d="M0 0 C1.38976295 -0.00074776 1.38976295 -0.00074776 2.80760193 -0.00151062 C4.75481322 0.00081714 6.70202826 0.01046841 8.64916992 0.02709961 C11.61599841 0.05074065 14.58192895 0.0476442 17.54882812 0.04101562 C19.44922406 0.04659198 21.34961625 0.05370159 23.25 0.0625 C24.12934708 0.06158859 25.00869415 0.06067719 25.91468811 0.05973816 C31.00411361 0.1178688 35.23377012 0.72345324 40.05859375 2.36328125 C40.05859375 3.02328125 40.05859375 3.68328125 40.05859375 4.36328125 C40.67282491 4.46242567 41.28705607 4.56157009 41.9199003 4.66371888 C44.05859375 5.36328125 44.05859375 5.36328125 46.27768898 8.55627918 C48.99346201 14.56612238 48.60417954 20.7967038 48.55307007 27.27531433 C48.5562497 28.68934187 48.56118032 30.10336637 48.56770289 31.51738244 C48.58049108 35.38914215 48.56842445 39.26048152 48.55217433 43.13221347 C48.53898962 47.3128616 48.54892385 51.4934639 48.55593872 55.67411804 C48.56601093 63.85767598 48.55475495 72.041072 48.53623812 80.22460981 C48.51545282 89.75366416 48.51561094 99.28268366 48.51658328 108.81175641 C48.51758407 125.81130601 48.49927218 142.8107803 48.47021484 159.81030273 C48.44202757 176.30934013 48.42787391 192.80831125 48.42919922 209.30737305 C48.42927913 210.32399673 48.42935904 211.34062041 48.42944138 212.38805088 C48.42952209 213.40291107 48.4296028 214.41777127 48.42968595 215.46338481 C48.4310652 234.24543465 48.41928978 253.02745631 48.40137952 271.80949702 C48.39534466 278.45371474 48.39322016 285.09792729 48.39231491 291.74214745 C48.3909514 299.83543703 48.38203234 307.92867912 48.36364929 316.02194854 C48.35440891 320.1521586 48.34832395 324.28230789 48.35083771 328.41252899 C48.35302632 332.19170598 48.34600015 335.97074847 48.33154066 339.7498974 C48.32618974 341.76791366 48.33063609 343.78594851 48.33540475 345.80396622 C48.32573142 347.59848063 48.32573142 347.59848063 48.31586266 349.42924786 C48.31445381 350.4619275 48.31304496 351.49460714 48.31159341 352.5585801 C48.04590477 355.50394866 47.2936471 357.69072806 46.05859375 360.36328125 C45.39859375 360.36328125 44.73859375 360.36328125 44.05859375 360.36328125 C44.05859375 361.02328125 44.05859375 361.68328125 44.05859375 362.36328125 C43.39859375 362.36328125 42.73859375 362.36328125 42.05859375 362.36328125 C42.05859375 363.02328125 42.05859375 363.68328125 42.05859375 364.36328125 C41.06859375 364.36328125 40.07859375 364.36328125 39.05859375 364.36328125 C39.05859375 365.02328125 39.05859375 365.68328125 39.05859375 366.36328125 C33.78612553 367.43306521 28.66879106 367.55698776 23.3125 367.6015625 C22.38316147 367.60963425 21.45382294 367.61770599 20.49632263 367.62602234 C18.53719925 367.63980559 16.57805244 367.65055329 14.61889648 367.65844727 C12.62207976 367.66999332 10.62529452 367.69048629 8.62866211 367.7199707 C5.73139648 367.76270746 2.83504191 367.77882118 -0.0625 367.7890625 C-0.94812119 367.80657059 -1.83374237 367.82407867 -2.74620056 367.84211731 C-9.80036566 367.81757807 -14.0965808 366.13121953 -19.25390625 361.11328125 C-23.08856388 354.86420956 -23.23800221 348.48158426 -22.94140625 341.36328125 C-23.60140625 341.36328125 -24.26140625 341.36328125 -24.94140625 341.36328125 C-25.17988281 341.935625 -25.41835937 342.50796875 -25.6640625 343.09765625 C-27.20830216 345.83667462 -29.02940921 347.52998338 -31.37890625 349.61328125 C-32.55259766 350.67289063 -32.55259766 350.67289063 -33.75 351.75390625 C-35.94140625 353.36328125 -35.94140625 353.36328125 -38.94140625 353.36328125 C-39.27140625 354.35328125 -39.60140625 355.34328125 -39.94140625 356.36328125 C-42.29415015 357.96171031 -44.58473761 359.36860929 -47.06640625 360.73828125 C-48.13652954 361.33382812 -48.13652954 361.33382812 -49.22827148 361.94140625 C-58.37470024 366.87268201 -67.62981058 369.92146013 -77.94140625 371.36328125 C-78.27140625 371.69328125 -78.60140625 372.02328125 -78.94140625 372.36328125 C-81.83981515 372.7756198 -84.71828071 373.12603525 -87.62890625 373.42578125 C-88.48436035 373.51448486 -89.33981445 373.60318848 -90.22119141 373.69458008 C-99.16620185 374.56569547 -108.08860351 375.19879059 -116.94140625 373.36328125 C-118.71110353 373.24132661 -120.48218153 373.13849039 -122.25390625 373.05078125 C-145.64943026 371.16081236 -169.42291204 360.86913292 -186.94140625 345.36328125 C-187.88242188 344.56535156 -188.8234375 343.76742188 -189.79296875 342.9453125 C-215.12099854 321.05124247 -229.76880695 289.50511494 -232.94140625 256.36328125 C-233.02870272 253.80318867 -233.07196738 251.24126701 -233.07421875 248.6796875 C-233.07517548 247.97988266 -233.0761322 247.28007782 -233.07711792 246.55906677 C-233.07779301 245.09105336 -233.07598599 243.62303684 -233.07177734 242.1550293 C-233.06642765 239.93466334 -233.07174113 237.71450036 -233.078125 235.49414062 C-233.0881599 216.65678855 -233.0881599 216.65678855 -230.94140625 212.36328125 C-230.85890625 211.18765625 -230.77640625 210.01203125 -230.69140625 208.80078125 C-230.20131179 203.93936044 -228.94194458 199.40874895 -227.56640625 194.73828125 C-227.35725586 194.02212646 -227.14810547 193.30597168 -226.93261719 192.56811523 C-222.46017657 177.75272893 -214.83330117 163.94969589 -205.94140625 151.36328125 C-205.28140625 150.37328125 -204.62140625 149.38328125 -203.94140625 148.36328125 C-203.28140625 148.36328125 -202.62140625 148.36328125 -201.94140625 148.36328125 C-201.63203125 147.55890625 -201.63203125 147.55890625 -201.31640625 146.73828125 C-199.40890199 143.44350116 -196.89321241 140.76964497 -193.94140625 138.36328125 C-193.28140625 138.36328125 -192.62140625 138.36328125 -191.94140625 138.36328125 C-191.28140625 137.04328125 -190.62140625 135.72328125 -189.94140625 134.36328125 C-189.28140625 134.36328125 -188.62140625 134.36328125 -187.94140625 134.36328125 C-187.73386719 133.79867187 -187.52632812 133.2340625 -187.3125 132.65234375 C-185.45502696 129.55126341 -182.91395607 127.77486986 -180.00390625 125.73828125 C-179.08387817 125.09294434 -179.08387817 125.09294434 -178.14526367 124.43457031 C-148.38879868 104.11740046 -115.54213863 98.03495658 -80.23388672 103.92773438 C-64.01807925 107.0085651 -48.58847189 114.96472155 -35.94140625 125.36328125 C-34.01444906 126.94025831 -32.08736187 128.51707654 -30.16015625 130.09375 C-29.17982422 130.89578857 -28.19949219 131.69782715 -27.18945312 132.52416992 C-26.07666992 133.43453003 -26.07666992 133.43453003 -24.94140625 134.36328125 C-24.94417163 133.76859071 -24.94693701 133.17390017 -24.94978619 132.5611887 C-25.01616275 118.06245281 -25.06574349 103.56372592 -25.09684277 89.0648737 C-25.11228356 82.05320324 -25.13331939 75.04163447 -25.16772461 68.0300293 C-25.2009244 61.26083351 -25.21827031 54.49174334 -25.22603798 47.72247124 C-25.23157217 45.14255551 -25.24237906 42.56264542 -25.25859642 39.98277473 C-25.28043869 36.36347185 -25.28337025 32.74460256 -25.28198242 29.12524414 C-25.29276825 28.06356522 -25.30355408 27.00188629 -25.31466675 25.90803528 C-25.28333803 18.33543691 -24.11270389 12.06252908 -20.25390625 5.48828125 C-14.4528532 0.15758385 -7.47273986 -0.07844552 0 0 Z M-140.94140625 188.36328125 C-153.88113844 204.62024419 -161.51249518 222.49214465 -159.66015625 243.5625 C-158.2857478 255.36391104 -154.92998444 267.03814644 -148.94140625 277.36328125 C-148.28140625 277.69328125 -147.62140625 278.02328125 -146.94140625 278.36328125 C-146.67328125 278.92015625 -146.40515625 279.47703125 -146.12890625 280.05078125 C-139.52181031 292.91723123 -124.67941661 299.66283731 -111.81640625 304.55078125 C-95.91269384 309.04530867 -79.17767348 308.49406497 -63.94140625 302.36328125 C-62.30945312 301.72712891 -62.30945312 301.72712891 -60.64453125 301.078125 C-52.316869 297.37814035 -46.26877769 291.75666104 -39.94140625 285.36328125 C-39.03068359 284.48542969 -39.03068359 284.48542969 -38.1015625 283.58984375 C-25.98198804 270.92376328 -22.28783953 252.0451677 -22.47070312 235.15771484 C-23.10188355 216.7762637 -29.58115196 200.28283271 -42.94140625 187.36328125 C-43.93140625 186.39455078 -43.93140625 186.39455078 -44.94140625 185.40625 C-58.06708902 173.25970082 -75.07203325 168.00797273 -92.79443359 168.26074219 C-110.56871264 169.10963884 -128.09311136 175.80050403 -140.94140625 188.36328125 Z "
     fill="#091C3F"
     transform="translate(1288.94140625,202.63671875)"
     id="path4" />
  <path
     d="M0 0 C11.52936396 8.00921993 23.12545665 17.60779882 31.56689453 28.91674805 C31.56689453 29.90674805 31.56689453 30.89674805 31.56689453 31.91674805 C32.55689453 32.24674805 33.54689453 32.57674805 34.56689453 32.91674805 C36.11098342 35.10121488 37.47894105 37.23544465 38.81689453 39.54174805 C39.41014526 40.55664307 39.41014526 40.55664307 40.01538086 41.59204102 C45.94506778 51.89820248 50.56096371 62.11193852 53.87939453 73.54174805 C54.12197998 74.37593262 54.36456543 75.21011719 54.61450195 76.06958008 C57.92720232 88.11427291 58.91790288 99.91720128 58.88256836 112.34448242 C58.879417 114.65030684 58.90293692 116.95483166 58.92822266 119.26049805 C59.02406752 141.68864366 52.89416756 161.70317653 43.56689453 181.91674805 C42.90689453 181.91674805 42.24689453 181.91674805 41.56689453 181.91674805 C41.48439453 182.61799805 41.40189453 183.31924805 41.31689453 184.04174805 C40.38680448 187.60709325 38.80003084 190.00690376 36.56689453 192.91674805 C35.90689453 192.91674805 35.24689453 192.91674805 34.56689453 192.91674805 C34.29876953 193.65924805 34.03064453 194.40174805 33.75439453 195.16674805 C32.61412703 197.80736753 31.47309147 199.77227649 29.56689453 201.91674805 C28.90689453 201.91674805 28.24689453 201.91674805 27.56689453 201.91674805 C27.34001953 202.47362305 27.11314453 203.03049805 26.87939453 203.60424805 C24.61089004 207.60113691 21.94789507 210.45641453 17.56689453 211.91674805 C17.56689453 212.57674805 17.56689453 213.23674805 17.56689453 213.91674805 C16.90689453 213.91674805 16.24689453 213.91674805 15.56689453 213.91674805 C15.35677734 214.48264648 15.14666016 215.04854492 14.93017578 215.6315918 C13.10068086 218.69822369 10.62568229 220.46200306 7.75439453 222.47924805 C7.14619873 222.90689453 6.53800293 223.33454102 5.91137695 223.77514648 C-10.24356525 234.7937785 -27.99260761 243.13953407 -47.43310547 245.91674805 C-48.36123047 246.24416992 -49.28935547 246.5715918 -50.24560547 246.90893555 C-54.60436963 248.28707422 -58.89129405 248.65241559 -63.43310547 249.04174805 C-64.39498779 249.12521484 -65.35687012 249.20868164 -66.34790039 249.29467773 C-94.84929488 251.56533594 -126.74849444 249.96772996 -152.43701172 235.9909668 C-153.95995022 235.1713815 -155.5165851 234.41410285 -157.08544922 233.6862793 C-176.39163376 224.62937012 -195.0032933 208.98322535 -206.43310547 190.91674805 C-206.43310547 189.92674805 -206.43310547 188.93674805 -206.43310547 187.91674805 C-207.09310547 187.91674805 -207.75310547 187.91674805 -208.43310547 187.91674805 C-213.11818275 179.53212754 -217.07702286 171.47125787 -219.73388672 162.22143555 C-220.43597753 159.76893787 -220.43597753 159.76893787 -221.68310547 156.91674805 C-222.05435547 155.92674805 -222.05435547 155.92674805 -222.43310547 154.91674805 C-221.93810547 153.92674805 -221.93810547 153.92674805 -221.43310547 152.91674805 C-222.09310547 152.91674805 -222.75310547 152.91674805 -223.43310547 152.91674805 C-223.91786656 150.45940567 -224.39596481 148.00104896 -224.87060547 145.54174805 C-225.0053125 144.86241211 -225.14001953 144.18307617 -225.27880859 143.4831543 C-231.95355952 108.64421045 -225.63365879 75.07696124 -209.43310547 43.91674805 C-208.77310547 43.91674805 -208.11310547 43.91674805 -207.43310547 43.91674805 C-207.33126953 43.36374023 -207.22943359 42.81073242 -207.12451172 42.2409668 C-203.93150186 31.50740257 -194.27606069 22.52902811 -186.43310547 14.91674805 C-185.77310547 14.25674805 -185.11310547 13.59674805 -184.43310547 12.91674805 C-183.44310547 12.91674805 -182.45310547 12.91674805 -181.43310547 12.91674805 C-181.19849609 12.33280273 -180.96388672 11.74885742 -180.72216797 11.1472168 C-172.79962049 -2.56119112 -146.3447336 -11.73340675 -131.97216797 -16.14575195 C-121.15287009 -19.01179113 -110.56664965 -21.43848009 -99.35107422 -21.9074707 C-96.48979931 -22.01072354 -96.48979931 -22.01072354 -93.95654297 -22.59106445 C-63.92186985 -28.44922051 -24.93856564 -16.62855535 0 0 Z M-134.43310547 63.91674805 C-135.76878119 65.5815381 -137.10254771 67.24786471 -138.43310547 68.91674805 C-139.09310547 69.24674805 -139.75310547 69.57674805 -140.43310547 69.91674805 C-140.43310547 70.90674805 -140.43310547 71.89674805 -140.43310547 72.91674805 C-141.09310547 72.91674805 -141.75310547 72.91674805 -142.43310547 72.91674805 C-152.96786656 93.06575712 -157.60593516 114.96684633 -150.75341797 137.26831055 C-146.93476416 147.82044859 -141.39263285 156.06496384 -133.43310547 163.91674805 C-132.72283203 164.63733398 -132.01255859 165.35791992 -131.28076172 166.1003418 C-125.63991981 171.49637321 -119.51346657 174.73108487 -112.43310547 177.91674805 C-111.29873047 178.49424805 -110.16435547 179.07174805 -108.99560547 179.66674805 C-91.00455998 185.97939559 -69.39980522 184.07898922 -52.20654297 176.3581543 C-47.60275069 173.96547915 -43.50044062 171.12780211 -39.43310547 167.91674805 C-38.64935547 167.29799805 -37.86560547 166.67924805 -37.05810547 166.04174805 C-31.5059752 161.38996323 -27.06766112 156.20417872 -23.43310547 149.91674805 C-23.43310547 149.25674805 -23.43310547 148.59674805 -23.43310547 147.91674805 C-22.77310547 147.58674805 -22.11310547 147.25674805 -21.43310547 146.91674805 C-17.72611826 140.16312763 -16.41045239 132.63033477 -15.04638672 125.1394043 C-14.43310547 121.91674805 -14.43310547 121.91674805 -13.43310547 118.91674805 C-12.71621042 104.10091695 -17.07267284 91.48982212 -22.43310547 77.91674805 C-23.09310547 77.91674805 -23.75310547 77.91674805 -24.43310547 77.91674805 C-24.49498047 77.19487305 -24.55685547 76.47299805 -24.62060547 75.72924805 C-25.69748764 72.001579 -27.58084758 70.50970977 -30.43310547 67.91674805 C-31.57779297 66.74112305 -31.57779297 66.74112305 -32.74560547 65.54174805 C-33.63248047 64.67549805 -34.51935547 63.80924805 -35.43310547 62.91674805 C-35.96162109 62.39209961 -36.49013672 61.86745117 -37.03466797 61.3269043 C-46.95152865 52.02193501 -57.96667507 46.65106105 -71.43310547 44.91674805 C-72.66544922 44.75303711 -73.89779297 44.58932617 -75.16748047 44.4206543 C-97.64282383 42.23179054 -118.08393211 47.99631175 -134.43310547 63.91674805 Z "
     fill="#091C40"
     transform="translate(1769.43310546875,327.083251953125)"
     id="path6" />
  <path
     d="M0 0 C1.10988281 0.32073486 1.10988281 0.32073486 2.2421875 0.64794922 C14.19425281 4.19425281 14.19425281 4.19425281 17 7 C17.804375 7.2475 18.60875 7.495 19.4375 7.75 C27.44886258 10.56100441 35.80622615 15.1079286 42 21 C42 21.66 42 22.32 42 23 C42.66 23.185625 43.32 23.37125 44 23.5625 C63.88239011 33.0894786 78.45346816 59.94859339 85.67822266 79.88452148 C89.80020527 92.04768369 91.90415456 104.39972103 92.8125 117.1875 C92.86575439 117.88238525 92.91900879 118.57727051 92.97387695 119.29321289 C93.25316285 124.4571649 92.29710665 128.4057867 90 133 C89.34 133 88.68 133 88 133 C87.74973557 133.63053284 87.49947113 134.26106567 87.24162292 134.91070557 C85.72517382 137.46245346 84.95722949 137.70360371 82.1340332 138.42871094 C81.33219604 138.64312332 80.53035889 138.85753571 79.70422363 139.07844543 C78.82858765 139.29490219 77.95295166 139.51135895 77.05078125 139.734375 C76.13832642 139.9735112 75.22587158 140.2126474 74.2857666 140.45903015 C71.29841763 141.23802793 68.30575063 141.99402838 65.3125 142.75 C63.25376918 143.28246379 61.19542046 143.81640709 59.13745117 144.35180664 C54.03052519 145.67673482 48.91924863 146.98384271 43.80615234 148.284729 C39.78508786 149.30967364 35.767337 150.34727674 31.75 151.38671875 C27.83717417 152.39844307 23.92404368 153.40888731 20.00927734 154.41308594 C12.94079415 156.22728217 5.89654414 158.1043163 -1.12792969 160.08129883 C-20.03911733 165.39438009 -39.06324108 170.30486746 -58.08865356 175.18988037 C-60.02022679 175.685899 -61.95160515 176.18267712 -63.88278198 176.68023682 C-66.60866847 177.38198169 -69.33543384 178.08019914 -72.0625 178.77734375 C-72.87691055 178.98740555 -73.69132111 179.19746735 -74.53041077 179.41389465 C-78.67050623 180.46759983 -82.76809243 181.37410087 -87 182 C-83.03958259 191.08412573 -74.56900119 196.88427952 -65.71875 200.9453125 C-39.44702206 211.1369311 -10.94580361 210.35939717 14.84423828 199.20214844 C22.04196546 195.94861593 28.68440843 192.12563671 35.01171875 187.3828125 C38.04327331 185.27442289 41.14674961 184.48028457 44.8359375 184.51953125 C51.92622261 186.09372812 58.20507637 191.75555228 63 197 C63.99 197.66 64.98 198.32 66 199 C66 199.66 66 200.32 66 201 C66.598125 201.28875 67.19625 201.5775 67.8125 201.875 C70 203 70 203 73 205 C73 205.66 73 206.32 73 207 C73.61875 207.268125 74.2375 207.53625 74.875 207.8125 C77 209 77 209 79 212 C79.4516129 218.32258065 79.4516129 218.32258065 77 222 C76.34 222 75.68 222 75 222 C74.93941406 222.70511719 74.87882813 223.41023437 74.81640625 224.13671875 C73.74868045 227.88142215 71.58552934 230.08837281 68.9375 232.8125 C68.44088867 233.33658447 67.94427734 233.86066895 67.43261719 234.40063477 C65.96457418 235.94321574 64.48327752 237.47208562 63 239 C62.25363281 239.78632812 61.50726562 240.57265625 60.73828125 241.3828125 C50.12318789 252.35243746 50.12318789 252.35243746 43 253 C42.67 253.99 42.34 254.98 42 256 C39.88974848 257.39872579 37.86258199 258.58884563 35.625 259.75 C34.95871582 260.09708008 34.29243164 260.44416016 33.60595703 260.80175781 C19.35298726 268.01189074 4.84862478 272.14734268 -10.88964844 274.65625 C-12.54924892 274.92657826 -14.2006864 275.24705482 -15.84765625 275.5859375 C-51.67746005 280.29220665 -89.73753819 270.19165452 -118.3515625 248.3515625 C-120.36966272 246.69691161 -122.15613882 244.84386118 -124 243 C-124.99 242.67 -125.98 242.34 -127 242 C-128.71358643 240.38161281 -130.3707726 238.70328319 -132 237 C-132.62003906 236.4121875 -133.24007812 235.824375 -133.87890625 235.21875 C-134.51699219 234.6103125 -135.15507813 234.001875 -135.8125 233.375 C-136.71935547 232.52035156 -136.71935547 232.52035156 -137.64453125 231.6484375 C-139 230 -139 230 -139 227 C-139.87011719 226.6596875 -139.87011719 226.6596875 -140.7578125 226.3125 C-154.38864888 218.33347383 -162.84136271 193.25295073 -167 179 C-167.32355469 177.91460937 -167.64710938 176.82921875 -167.98046875 175.7109375 C-169.76764244 169.04610637 -171.14526153 162.4692311 -168 156 C-164.45891053 152.53506299 -161.08107929 151.09727321 -156.375 149.6875 C-155.68881592 149.4814917 -155.00263184 149.2754834 -154.2956543 149.06323242 C-146.6975711 146.82869516 -139.01735364 144.88895912 -131.34594727 142.92504883 C-121.81368942 140.48375913 -112.30941311 137.94988878 -102.8125 135.375 C-102.05360474 135.16938446 -101.29470947 134.96376892 -100.51281738 134.75192261 C-95.58193668 133.41575108 -90.65162984 132.07747116 -85.72143555 130.73876953 C-77.70941507 128.56380102 -69.69648715 126.39217618 -61.6835022 124.22076416 C-59.60614783 123.65781939 -57.52881622 123.09479069 -55.45150757 122.53167725 C-44.26779744 119.50037678 -33.08229704 116.47664927 -21.8840332 113.49951172 C-18.3124274 112.54983619 -14.74210048 111.59547376 -11.171875 110.640625 C-7.22925802 109.58747685 -3.28196207 108.55702021 0.671875 107.546875 C2.32296482 107.11476729 3.97401048 106.68249079 5.625 106.25 C6.69210205 105.98799805 6.69210205 105.98799805 7.78076172 105.72070312 C11.85842508 104.6360549 14.50777346 103.47267099 17 100 C17.41669551 97.73731503 17.41669551 97.73731503 17 95.4375 C16.9175 94.67308594 16.835 93.90867187 16.75 93.12109375 C15.73310298 90.24518186 14.58251376 89.64470923 12 88 C9.40416892 86.92552467 6.83646795 85.9377542 4.19140625 85.00390625 C3.42884018 84.7290892 2.66627411 84.45427216 1.88059998 84.17112732 C0.26539635 83.59056975 -1.3510057 83.01333709 -2.96850586 82.43920898 C-5.40037821 81.57568148 -7.82836124 80.70191018 -10.25585938 79.82617188 C-18.04441837 77.02948333 -25.84320346 74.36334042 -33.77172852 71.9855957 C-37.44461455 70.86425857 -41.08996939 69.66679279 -44.734375 68.45703125 C-46.06373998 68.01869183 -47.3931673 67.58054141 -48.72265625 67.14257812 C-50.74679735 66.47549248 -52.76989729 65.8058271 -54.79052734 65.12817383 C-68.13403968 60.26473993 -68.13403968 60.26473993 -82 61 C-83.47933754 63.81074133 -84.22928719 65.97384583 -83.5234375 69.1328125 C-81.99933652 73.14848725 -80.14001877 76.83379024 -77.875 80.4765625 C-71.26576027 91.14046263 -71.26576027 91.14046263 -72.3125 95.6875 C-74.3558735 99.6985665 -75.50248172 101.4174902 -79.72583008 103.06030273 C-80.79212646 103.36911377 -81.85842285 103.6779248 -82.95703125 103.99609375 C-84.12443848 104.33624512 -85.2918457 104.67639648 -86.49462891 105.02685547 C-91.54557757 106.42907593 -96.60623695 107.77453676 -101.6875 109.0625 C-104.02111541 109.6577494 -106.35442666 110.25419197 -108.6875 110.8515625 C-109.3185112 111.01303268 -109.9495224 111.17450287 -110.59965515 111.34086609 C-115.40293938 112.57551399 -120.19474916 113.85039331 -124.98405457 115.13813782 C-128.77253165 116.15649861 -132.56296479 117.16748221 -136.35342407 118.17843628 C-138.2320951 118.68160947 -140.10985869 119.1881839 -141.98666382 119.69827271 C-144.6489125 120.42125648 -147.3142402 121.13169998 -149.98046875 121.83984375 C-151.16811829 122.16745193 -151.16811829 122.16745193 -152.37976074 122.50167847 C-157.3993278 123.81891594 -161.80961414 124.20392777 -167 124 C-167 123.34 -167 122.68 -167 122 C-167.99 122 -168.98 122 -170 122 C-175.17485312 111.66989548 -169.04509583 96.22852197 -165.69140625 85.890625 C-159.49847664 67.62951383 -150.47893165 51.02515232 -136.49609375 37.55078125 C-134.86656606 35.91801103 -134.86656606 35.91801103 -133.1328125 33.5859375 C-129.37346015 29.02789491 -124.64756927 25.6120035 -120 22 C-119.21496094 21.38769531 -118.42992187 20.77539062 -117.62109375 20.14453125 C-85.23654076 -3.80140725 -38.50652217 -11.20462218 0 0 Z "
     fill="#25C69B"
     transform="translate(667,302)"
     id="path8" />
  <path
     d="M0 0 C2.3481587 2.12176672 4.58692256 4.2531642 6.7421875 6.57421875 C7.35835937 7.2084375 7.97453125 7.84265625 8.609375 8.49609375 C35.28899443 36.88723593 32.89966901 79.52427098 32.94237614 115.68596697 C32.94533924 118.07231779 32.9494489 120.45866415 32.95388031 122.84501266 C32.96747367 130.33982521 32.97718703 137.83462721 32.9810822 145.3294512 C32.98558179 153.9333563 33.00325139 162.53710403 33.0320828 171.14096129 C33.05372521 177.8344265 33.06378739 184.5278474 33.06512332 191.22134721 C33.06616694 195.20255494 33.0719833 199.18361305 33.08994293 203.16478348 C33.10647457 206.89967268 33.10855471 210.63430025 33.09980392 214.3692131 C33.09867337 216.37954369 33.11233975 218.38986585 33.1265564 220.40014648 C33.09168215 227.99838153 32.94623539 235.55459504 28.0234375 241.73046875 C27.435625 242.17390625 26.8478125 242.61734375 26.2421875 243.07421875 C25.36046875 243.7703125 25.36046875 243.7703125 24.4609375 244.48046875 C21.37030015 246.44723797 18.68587545 246.7085398 15.12231445 246.7512207 C14.18736649 246.76405594 13.25241852 246.77689117 12.28913879 246.79011536 C11.27977768 246.79750229 10.27041656 246.80488922 9.23046875 246.8125 C8.18827682 246.82057175 7.1460849 246.82864349 6.0723114 246.83695984 C3.86406109 246.85079629 1.65578942 246.86152041 -0.55249023 246.86938477 C-3.9149686 246.88656372 -7.27645504 246.93045083 -10.63867188 246.97460938 C-12.78645112 246.98473961 -14.93423871 246.99325467 -17.08203125 247 C-18.58089119 247.02626213 -18.58089119 247.02626213 -20.11003113 247.05305481 C-26.27938692 247.03407017 -31.37371671 246.59351734 -36.2578125 242.57421875 C-41.5419832 235.25422796 -41.9711352 228.03333574 -41.88549805 219.26855469 C-41.89640472 217.3249984 -41.89640472 217.3249984 -41.90753174 215.34217834 C-41.92300127 212.54238445 -41.9229932 209.74318989 -41.91052818 206.94338226 C-41.89083235 202.50270122 -41.90627917 198.06254304 -41.92597961 193.62188721 C-41.95305526 186.58752142 -41.95663604 179.55337163 -41.95020658 172.51896405 C-41.93926009 159.9473328 -41.96414026 147.37576855 -42.00395423 134.80420327 C-42.0169093 130.40412976 -42.01835359 126.00425486 -42.0098213 121.60417223 C-42.00704508 119.51778791 -42.00872893 117.4314601 -42.01220703 115.34507751 C-42.01610986 112.82081632 -42.01306954 110.2965287 -42.00105286 107.77229309 C-42.05491203 92.16986862 -43.66282493 76.36479606 -54.12109375 64.0625 C-55.2578125 62.57421875 -55.2578125 62.57421875 -55.2578125 60.57421875 C-55.9590625 60.32671875 -56.6603125 60.07921875 -57.3828125 59.82421875 C-60.63243886 58.41133773 -63.33263722 56.56582745 -66.2578125 54.57421875 C-77.07758951 48.09674693 -91.85506151 50.32019176 -103.57421875 52.625 C-107.37333559 53.60398769 -110.70187017 54.92455478 -114.2578125 56.57421875 C-115.27101563 57.03183594 -116.28421875 57.48945313 -117.328125 57.9609375 C-130.5974267 65.26789964 -138.43770432 77.78244421 -142.6953125 91.94921875 C-145.07656629 100.89760742 -145.40693609 109.51906649 -145.41552734 118.72241211 C-145.42060806 119.91856644 -145.42568878 121.11472076 -145.43092346 122.34712219 C-145.44436535 125.60747857 -145.45378485 128.86782186 -145.46234083 132.12819362 C-145.47312557 135.55395934 -145.49169055 138.97967924 -145.51016235 142.40541077 C-145.57183717 154.05563687 -145.62608159 165.70585607 -145.65917969 177.35620117 C-145.67757059 183.80177955 -145.70655572 190.24722095 -145.7471844 196.69269854 C-145.76816684 200.09612559 -145.78369927 203.49938078 -145.78599167 206.9028759 C-145.7909091 210.70099791 -145.81408832 214.4986123 -145.84130859 218.29663086 C-145.83679939 219.96847946 -145.83679939 219.96847946 -145.8321991 221.67410278 C-145.91491648 229.46016275 -146.61967329 236.3112571 -151.6328125 242.51171875 C-157.44634719 247.07949601 -162.87012705 246.89432212 -170 246.91015625 C-171.0417337 246.91681305 -172.08346741 246.92346985 -173.1567688 246.93032837 C-175.35726154 246.9404389 -177.55778484 246.94514588 -179.75830078 246.94482422 C-183.11412394 246.94919441 -186.46862836 246.98552401 -189.82421875 247.0234375 C-191.96614135 247.02930666 -194.10807018 247.03327539 -196.25 247.03515625 C-197.24812714 247.04952728 -198.24625427 247.06389832 -199.27462769 247.07870483 C-206.71820457 247.03020239 -211.17807874 245.65395251 -216.5703125 240.26171875 C-219.93636974 234.90096092 -220.50775564 229.47241951 -220.50505066 223.24885559 C-220.50746507 222.54452461 -220.50987949 221.84019364 -220.51236707 221.1145193 C-220.51797126 218.77001612 -220.50936417 216.42578948 -220.50073242 214.08129883 C-220.50180656 212.39126004 -220.50374719 210.70122161 -220.50648499 209.01118469 C-220.5113321 204.41730879 -220.50366589 199.82353016 -220.49353194 195.22966599 C-220.48468404 190.36662821 -220.48651062 185.5035929 -220.4868927 180.64054871 C-220.4859549 172.4264466 -220.47727864 164.21238131 -220.46362305 155.99829102 C-220.44982593 147.67113512 -220.44260692 139.34401318 -220.44311523 131.0168457 C-220.4441715 106.70678609 -220.40831474 82.3973406 -220.29210913 58.08753335 C-220.26935997 53.30595538 -220.25074746 48.52439658 -220.23687321 43.74278492 C-220.21611469 36.68761188 -220.17166882 29.63312876 -220.09139442 22.57834435 C-220.06990531 20.41315949 -220.0564328 18.24787679 -220.05187035 16.0825901 C-220.04397053 13.21006664 -220.00570163 10.33963113 -219.95825195 7.4675293 C-219.96503558 6.26592069 -219.96503558 6.26592069 -219.97195625 5.04003716 C-219.82746985 -0.612243 -218.21712414 -5.24773237 -214.2578125 -9.42578125 C-213.2678125 -9.42578125 -212.2778125 -9.42578125 -211.2578125 -9.42578125 C-211.2578125 -10.08578125 -211.2578125 -10.74578125 -211.2578125 -11.42578125 C-205.69219916 -13.29822391 -200.77279113 -13.73296828 -194.921875 -13.7265625 C-194.04308685 -13.73084763 -193.16429871 -13.73513275 -192.25888062 -13.73954773 C-190.40827288 -13.74526499 -188.55764269 -13.7458106 -186.70703125 -13.74145508 C-183.89804149 -13.73829836 -181.09010965 -13.76177553 -178.28125 -13.78710938 C-176.47395965 -13.78938319 -174.66666649 -13.79008548 -172.859375 -13.7890625 C-172.030961 -13.79827225 -171.202547 -13.80748199 -170.34902954 -13.81697083 C-164.02987739 -13.76762053 -157.33719768 -13.05621078 -152.37026978 -8.81343079 C-145.61856274 -1.67973099 -145.79063418 7.24983943 -145.2578125 16.57421875 C-144.5978125 16.57421875 -143.9378125 16.57421875 -143.2578125 16.57421875 C-143.020625 15.83945312 -142.7834375 15.1046875 -142.5390625 14.34765625 C-136.99210501 2.34052266 -118.91092968 -6.66899329 -107.2578125 -11.42578125 C-73.39307072 -23.70362538 -28.90642256 -24.27048687 0 0 Z "
     fill="#091C40"
     transform="translate(1002.2578125,323.42578125)"
     id="path10" />
  <path
     d="M0 0 C0.90098419 -0.00428513 1.80196838 -0.00857025 2.73025513 -0.01298523 C4.62794152 -0.01870356 6.52564983 -0.0192473 8.42333984 -0.01489258 C11.304748 -0.0117358 14.18512495 -0.03521206 17.06640625 -0.06054688 C18.91926955 -0.06282066 20.77213558 -0.063523 22.625 -0.0625 C23.47528778 -0.07170975 24.32557556 -0.08091949 25.20162964 -0.09040833 C30.84609224 -0.04740654 36.40614561 0.55907739 41.4453125 3.30078125 C41.9403125 4.78578125 41.9403125 4.78578125 42.4453125 6.30078125 C43.4353125 6.79578125 43.4353125 6.79578125 44.4453125 7.30078125 C49.70096341 12.97688423 48.72069456 21.38016159 49.0078125 28.67578125 C49.05099609 29.69800781 49.09417969 30.72023438 49.13867188 31.7734375 C49.24419042 34.28243413 49.34630463 36.79152068 49.4453125 39.30078125 C50.0640625 38.47578125 50.6828125 37.65078125 51.3203125 36.80078125 C52.0215625 35.97578125 52.7228125 35.15078125 53.4453125 34.30078125 C54.1053125 34.30078125 54.7653125 34.30078125 55.4453125 34.30078125 C55.6928125 33.74390625 55.9403125 33.18703125 56.1953125 32.61328125 C64.00429184 18.16666947 81.65706101 9.57053679 96.4453125 4.30078125 C100.74987352 3.11586983 105.06740391 2.1676321 109.4453125 1.30078125 C110.05584473 1.12804687 110.66637695 0.9553125 111.29541016 0.77734375 C115.67522928 -0.19351781 120.22860935 0.11608345 124.6953125 0.11328125 C126.21318359 0.09491211 126.21318359 0.09491211 127.76171875 0.07617188 C134.76168358 0.06255327 141.15881419 0.25584897 147.2578125 4.05078125 C151.39149348 8.3025674 152.81140613 12.39056422 152.86181641 18.31445312 C152.84812012 19.05244141 152.83442383 19.79042969 152.8203125 20.55078125 C152.81306152 21.33001953 152.80581055 22.10925781 152.79833984 22.91210938 C152.61482537 30.87185004 151.36090856 38.58058207 149.82128906 46.37695312 C149.49225403 48.06058694 149.196455 49.75064668 148.90625 51.44140625 C147.93859474 56.91931907 146.99957163 62.15478485 142.5390625 65.90234375 C137.8956268 68.00127049 133.30140307 67.96974126 128.2578125 68.23828125 C114.77324621 69.16262241 100.42970636 70.52353696 88.4453125 77.30078125 C87.86088379 77.62771973 87.27645508 77.9546582 86.67431641 78.29150391 C84.62951987 79.44455449 82.59788952 80.61772809 80.5703125 81.80078125 C79.91458252 82.18065186 79.25885254 82.56052246 78.58325195 82.9519043 C75.10034674 85.04544646 72.7378789 86.96061828 70.4453125 90.30078125 C69.7853125 90.30078125 69.1253125 90.30078125 68.4453125 90.30078125 C68.03345703 91.19216797 68.03345703 91.19216797 67.61328125 92.1015625 C66.49643336 94.20452358 65.3097443 95.69824485 63.7578125 97.48828125 C60.75424683 101.46121286 58.75405171 105.61681912 56.8203125 110.17578125 C56.40519409 111.11780396 56.40519409 111.11780396 55.98168945 112.07885742 C49.27648349 128.54141724 48.86648355 145.21459277 48.90625 162.7265625 C48.89632215 165.132674 48.88437307 167.53877792 48.87051392 169.94487 C48.83841767 176.22113333 48.82778132 182.49722226 48.82366943 188.77355957 C48.81484922 198.86227586 48.77942952 208.95085124 48.7314949 219.03944969 C48.71892699 222.55209573 48.71966468 226.06456081 48.72177124 229.57722473 C48.7151937 231.7224644 48.708188 233.86770282 48.70068359 236.01293945 C48.70480759 236.98591476 48.70893158 237.95889008 48.71318054 238.96134949 C48.68584366 243.5218774 48.60537591 247.16818838 46.4453125 251.30078125 C46.0740625 252.14640625 45.7028125 252.99203125 45.3203125 253.86328125 C42.187286 257.93621569 37.99429668 259.92937084 32.91546631 260.66940308 C30.06095649 260.81066124 27.23281228 260.8293095 24.375 260.796875 C23.33513947 260.79833023 22.29527893 260.79978546 21.22390747 260.80128479 C19.03710106 260.79963243 16.85028222 260.78814595 14.66357422 260.76733398 C11.32338999 260.73830799 7.98478824 260.74675419 4.64453125 260.75976562 C2.51301315 260.75352949 0.38150004 260.74513953 -1.75 260.734375 C-2.74387726 260.73731064 -3.73775452 260.74024628 -4.76174927 260.74327087 C-10.08530717 260.67103017 -13.98438836 260.35243025 -18.5546875 257.30078125 C-19.9296875 255.11328125 -19.9296875 255.11328125 -20.5546875 253.30078125 C-21.2146875 253.30078125 -21.8746875 253.30078125 -22.5546875 253.30078125 C-25.06983999 246.93343521 -25.98765328 241.42993925 -25.9289093 234.60983276 C-25.93288371 233.67603196 -25.93685811 232.74223116 -25.94095296 231.78013337 C-25.95052263 228.67341373 -25.93879018 225.56715556 -25.92700195 222.46044922 C-25.92943164 220.22420075 -25.93315267 217.98795338 -25.93806458 215.75170898 C-25.94745183 209.6940556 -25.93806681 203.6365644 -25.92473245 197.5789237 C-25.91339844 191.2347547 -25.9175269 184.89059346 -25.91947937 178.54641724 C-25.9203616 167.89566048 -25.90936691 157.24497378 -25.89086914 146.59423828 C-25.87185806 135.64499996 -25.86478457 124.69583568 -25.87036133 113.74658203 C-25.87707048 100.53503161 -25.87376731 87.3235221 -25.86125755 74.11197281 C-25.85661498 69.07146726 -25.85573623 64.03098181 -25.8578434 58.9904747 C-25.85972761 53.05608553 -25.85161203 47.12179125 -25.835783 41.18742371 C-25.83154242 39.01018288 -25.83068808 36.83293242 -25.83347321 34.65568924 C-25.83669892 31.68294301 -25.82760321 28.71047961 -25.81538391 25.73776245 C-25.81916323 24.87715521 -25.82294256 24.01654796 -25.82683641 23.12986171 C-25.79060338 18.14362884 -25.15352426 14.03076601 -23.5546875 9.30078125 C-22.8946875 9.30078125 -22.2346875 9.30078125 -21.5546875 9.30078125 C-21.2246875 7.98078125 -20.8946875 6.66078125 -20.5546875 5.30078125 C-19.2346875 4.97078125 -17.9146875 4.64078125 -16.5546875 4.30078125 C-16.5546875 3.64078125 -16.5546875 2.98078125 -16.5546875 2.30078125 C-10.92209389 0.39687934 -5.92341683 -0.00631911 0 0 Z "
     fill="#091C40"
     transform="translate(1391.5546875,309.69921875)"
     id="path12" />
  <path
     d="M0 0 C0.33 0.66 0.66 1.32 1 2 C1.99 2 2.98 2 4 2 C4 2.99 4 3.98 4 5 C4.66 5 5.32 5 6 5 C6 5.66 6 6.32 6 7 C7.7634375 6.9690625 7.7634375 6.9690625 9.5625 6.9375 C13.47413467 6.93052739 17.14497944 7.35749657 21 8 C15.50725702 10.94254088 11.15402446 11.10256707 5 11 C5 10.34 5 9.68 5 9 C4.01 9 3.02 9 2 9 C0.50178941 5.62902617 0 3.79557881 0 0 Z "
     fill="#2CC195"
     transform="translate(495,415)"
     id="path14" />
  <path
     d="M0 0 C5.35048061 0.37328935 7.50912907 1.9957657 11 6 C10.67 6.66 10.34 7.32 10 8 C6.87709365 7.51421457 4.00419641 7.0013988 1 6 C1.20625 5.38125 1.4125 4.7625 1.625 4.125 C1.74875 3.42375 1.8725 2.7225 2 2 C1.34 1.34 0.68 0.68 0 0 Z "
     fill="#071633"
     transform="translate(840,311)"
     id="path16" />
  <path
     d="M0 0 C2.31 0 4.62 0 7 0 C7 0.99 7 1.98 7 3 C6.01 3.495 6.01 3.495 5 4 C5.99 4.66 6.98 5.32 8 6 C-0.57142857 5.14285714 -0.57142857 5.14285714 -4 3 C-2.68 2.67 -1.36 2.34 0 2 C0 1.34 0 0.68 0 0 Z "
     fill="#2ABD94"
     transform="translate(598,569)"
     id="path18" />
  <path
     d="M0 0 C2.25 0.25 2.25 0.25 4 1 C5.125 4.75 5.125 4.75 4 7 C2.68 7 1.36 7 0 7 C0 6.34 0 5.68 0 5 C-1.32 4.67 -2.64 4.34 -4 4 C-2.25 1.9375 -2.25 1.9375 0 0 Z "
     fill="#0D224C"
     transform="translate(970,560)"
     id="path20" />
  <path
     d="M0 0 C-2.413762 0.69951063 -4.83010234 1.38483919 -7.25 2.0625 C-8.27287109 2.36124023 -8.27287109 2.36124023 -9.31640625 2.66601562 C-15.58342161 4.40009269 -15.58342161 4.40009269 -19 3 C-18.67 2.34 -18.34 1.68 -18 1 C-14.98046875 0.33203125 -14.98046875 0.33203125 -11.1875 -0.1875 C-9.94355469 -0.36667969 -8.69960938 -0.54585938 -7.41796875 -0.73046875 C-4.51386713 -0.95947791 -2.69932383 -0.95870192 0 0 Z "
     fill="#2ABF96"
     transform="translate(655,465)"
     id="path22" />
  <path
     d="M0 0 C3.10712212 0.78637041 6.09244107 1.63924116 9 3 C10.5625 5.6875 10.5625 5.6875 11 8 C7.24026115 8 6.54322371 7.03457593 3.8125 4.5625 C3.09707031 3.92441406 2.38164063 3.28632812 1.64453125 2.62890625 C1.10183594 2.09136719 0.55914063 1.55382812 0 1 C0 0.67 0 0.34 0 0 Z "
     fill="#061733"
     transform="translate(1094,540)"
     id="path24" />
  <path
     d="M0 0 C0.33 0 0.66 0 1 0 C1.33 3.96 1.66 7.92 2 12 C2.66 12 3.32 12 4 12 C3.67 14.97 3.34 17.94 3 21 C2.67 21 2.34 21 2 21 C0.02427486 13.67753847 -1.61730978 7.49843627 0 0 Z "
     fill="#31BF95"
     transform="translate(498,460)"
     id="path26" />
  <path
     d="M0 0 C1.97986082 0.11347619 3.95891598 0.2410935 5.9375 0.375 C7.03964844 0.44460938 8.14179687 0.51421875 9.27734375 0.5859375 C10.62505859 0.79089844 10.62505859 0.79089844 12 1 C12.33 1.66 12.66 2.32 13 3 C15.01669827 4.13350534 15.01669827 4.13350534 17 5 C15 6 15 6 11.5234375 5.00390625 C10.13802064 4.53099953 8.75528453 4.05018356 7.375 3.5625 C6.31539062 3.19801758 6.31539062 3.19801758 5.234375 2.82617188 C3.48726713 2.22412795 1.74332214 1.61291983 0 1 C0 0.67 0 0.34 0 0 Z "
     fill="#30C095"
     transform="translate(603,363)"
     id="path28" />
  <path
     d="M0 0 C2.5 1.25 2.5 1.25 5 3 C5 4.32 5 5.64 5 7 C5.99 7.33 6.98 7.66 8 8 C8 8.66 8 9.32 8 10 C9.32 10.66 10.64 11.32 12 12 C8.54190006 11.70359143 7.04489121 11.03653935 4.3125 8.8125 C1.91506835 5.89670476 0.92826259 3.62866287 0 0 Z "
     fill="#0A1834"
     transform="translate(962,557)"
     id="path30" />
  <path
     d="M0 0 C0.33 0.66 0.66 1.32 1 2 C-0.32 2 -1.64 2 -3 2 C-3 2.66 -3 3.32 -3 4 C-5.97 3.67 -8.94 3.34 -12 3 C-8.06286367 -0.23407627 -4.99388913 -1.89423381 0 0 Z "
     fill="#122447"
     transform="translate(1719,571)"
     id="path32" />
  <path
     d="M0 0 C4.29 0.33 8.58 0.66 13 1 C9.39338934 2.80330533 6.91606575 3.46599103 3 4 C3 3.34 3 2.68 3 2 C2.01 2 1.02 2 0 2 C0 1.34 0 0.68 0 0 Z "
     fill="#31B892"
     transform="translate(503,422)"
     id="path34" />
  <path
     d="M0 0 C0.33 0 0.66 0 1 0 C1.33 3.96 1.66 7.92 2 12 C1.01 12 0.02 12 -1 12 C-1.02687279 10.18757948 -1.04633715 8.37504767 -1.0625 6.5625 C-1.07410156 5.55316406 -1.08570313 4.54382813 -1.09765625 3.50390625 C-1 1 -1 1 0 0 Z "
     fill="#0C1735"
     transform="translate(184,310)"
     id="path36" />
  <path
     d="M0 0 C0.33 0 0.66 0 1 0 C1.16682272 4.92127034 1.24828052 8.50343896 -1 13 C-1.66 12.67 -2.32 12.34 -3 12 C-2.814375 11.236875 -2.62875 10.47375 -2.4375 9.6875 C-1.77180827 6.91032625 -1.77180827 6.91032625 -3 4 C-2.01 3.67 -1.02 3.34 0 3 C0 2.01 0 1.02 0 0 Z "
     fill="#061530"
     transform="translate(468,244)"
     id="path38" />
  <path
     d="M0 0 C2.31 0 4.62 0 7 0 C7 0.99 7 1.98 7 3 C4.39417629 3.93065133 3.35801776 4.14917407 0.75 3.0625 C0.1725 2.711875 -0.405 2.36125 -1 2 C-0.67 1.34 -0.34 0.68 0 0 Z M4 1 C5 3 5 3 5 3 Z "
     fill="#0F224B"
     transform="translate(886,316)"
     id="path40" />
  <path
     d="M0 0 C3.96 0.33 7.92 0.66 12 1 C12 1.33 12 1.66 12 2 C3.585 2.495 3.585 2.495 -5 3 C-5 2.67 -5 2.34 -5 2 C-3.35 2 -1.7 2 0 2 C0 1.34 0 0.68 0 0 Z "
     fill="#16274A"
     transform="translate(308,201)"
     id="path42" />
  <path
     d="M0 0 C0.99 0.33 1.98 0.66 3 1 C3 1.99 3 2.98 3 4 C2.34 4 1.68 4 1 4 C1 4.66 1 5.32 1 6 C0.01 6 -0.98 6 -2 6 C-2 5.34 -2 4.68 -2 4 C-2.66 3.67 -3.32 3.34 -4 3 C-2.1875 1.4375 -2.1875 1.4375 0 0 Z "
     fill="#071835"
     transform="translate(1332,559)"
     id="path44" />
  <path
     d="M0 0 C2.31 0.66 4.62 1.32 7 2 C6.67 2.99 6.34 3.98 6 5 C4.35 5 2.7 5 1 5 C0.67 3.35 0.34 1.7 0 0 Z "
     fill="#0C204A"
     transform="translate(1168,505)"
     id="path46" />
  <path
     d="M0 0 C1.98 0.495 1.98 0.495 4 1 C3.6875 2.875 3.6875 2.875 3 5 C2.01 5.66 1.02 6.32 0 7 C-0.93423645 3.98968256 -1.04449911 3.13349732 0 0 Z "
     fill="#0F2447"
     transform="translate(1330,208)"
     id="path48" />
  <path
     d="M0 0 C0 0.66 0 1.32 0 2 C-4.49656104 4.24828052 -8.07872966 4.16682272 -13 4 C-10.34531286 2.23020858 -8.92500069 1.57859829 -5.9375 0.875 C-5.24527344 0.70742188 -4.55304687 0.53984375 -3.83984375 0.3671875 C-2 0 -2 0 0 0 Z "
     fill="#2DBD96"
     transform="translate(549,442)"
     id="path50" />
  <path
     d="M0 0 C-3.83704776 2.55803184 -7.75712791 4.34505724 -12.4375 3.625 C-12.953125 3.41875 -13.46875 3.2125 -14 3 C-13.34 3 -12.68 3 -12 3 C-12 2.34 -12 1.68 -12 1 C-7.9472484 0.01751476 -4.16138263 -0.08159574 0 0 Z "
     fill="#06122E"
     transform="translate(1671,372)"
     id="path52" />
  <path
     d="M0 0 C-0.99 1.485 -0.99 1.485 -2 3 C-4.97 2.505 -4.97 2.505 -8 2 C-8 1.34 -8 0.68 -8 0 C-5.13822943 -1.43088528 -3.06624227 -0.59991697 0 0 Z "
     fill="#0C2347"
     transform="translate(1207,308)"
     id="path54" />
  <path
     d="M0 0 C0 0.66 0 1.32 0 2 C1.98 2 3.96 2 6 2 C2.91190305 3.76462683 1.76687864 4 -2 4 C-2 3.34 -2 2.68 -2 2 C-3.32 1.67 -4.64 1.34 -6 1 C-3.92446352 0.4465236 -2.15634036 0 0 0 Z "
     fill="#112246"
     transform="translate(1170,572)"
     id="path56" />
  <path
     d="M0 0 C2.475 0.495 2.475 0.495 5 1 C5.33 1.99 5.66 2.98 6 4 C5.34 4 4.68 4 4 4 C4 4.66 4 5.32 4 6 C2.68 5.67 1.36 5.34 0 5 C0 3.33333333 0 1.66666667 0 0 Z "
     fill="#0F2348"
     transform="translate(1529,369)"
     id="path58" />
  <path
     d="M0 0 C0.8125 1.6875 0.8125 1.6875 1 4 C-1.4375 6.75 -1.4375 6.75 -4 9 C-4 5.00095031 -2.27413033 3.19799578 0 0 Z "
     fill="#2FC199"
     transform="translate(517,356)"
     id="path60" />
  <path
     d="M0 0 C-2.96178773 1.67110042 -5.37071192 2.32682752 -8.75 2.625 C-9.54921875 2.69976563 -10.3484375 2.77453125 -11.171875 2.8515625 C-11.77515625 2.90054688 -12.3784375 2.94953125 -13 3 C-12.37996094 2.69449219 -11.75992187 2.38898437 -11.12109375 2.07421875 C-8.99997523 1.03595494 -8.99997523 1.03595494 -7.0625 -0.1875 C-4.38201174 -1.24344992 -2.72832067 -0.75786685 0 0 Z "
     fill="#0A1731"
     transform="translate(1217,572)"
     id="path62" />
  <path
     d="M0 0 C0.33 0.66 0.66 1.32 1 2 C0.0625 4.125 0.0625 4.125 -1 6 C-1.99 5.67 -2.98 5.34 -4 5 C-4.6875 2.9375 -4.6875 2.9375 -5 1 C-4.01 1 -3.02 1 -2 1 C-1.34 0.67 -0.68 0.34 0 0 Z "
     fill="#2CCFA2"
     transform="translate(742,522)"
     id="path64" />
  <path
     d="M0 0 C2 2 2 2 2.125 5.125 C2.08375 6.07375 2.0425 7.0225 2 8 C1.34 8 0.68 8 0 8 C-1.125 5.6875 -1.125 5.6875 -2 3 C-1.34 2.01 -0.68 1.02 0 0 Z "
     fill="#112046"
     transform="translate(1069,498)"
     id="path66" />
  <path
     d="M0 0 C0.66 0.33 1.32 0.66 2 1 C1.21625 1.598125 0.4325 2.19625 -0.375 2.8125 C-3.14574323 4.91085249 -3.14574323 4.91085249 -5 8 C-5.99 7.67 -6.98 7.34 -8 7 C-5.36 4.69 -2.72 2.38 0 0 Z "
     fill="#31BD97"
     transform="translate(548,323)"
     id="path68" />
  <path
     d="M0 0 C2.31 0.66 4.62 1.32 7 2 C4.35261084 3.4606285 3.10551666 4 0 4 C-0.33 3.01 -0.66 2.02 -1 1 C-0.67 0.67 -0.34 0.34 0 0 Z "
     fill="#2AD0A1"
     transform="translate(676,307)"
     id="path70" />
  <path
     d="M0 0 C4.95 0.99 4.95 0.99 10 2 C10 2.33 10 2.66 10 3 C6.7 3 3.4 3 0 3 C0 2.01 0 1.02 0 0 Z "
     fill="#112344"
     transform="translate(354,200)"
     id="path72" />
  <path
     d="M0 0 C-1.3125 1.5 -1.3125 1.5 -3 3 C-3.99 3 -4.98 3 -6 3 C-6.33 3.66 -6.66 4.32 -7 5 C-6.67 3.35 -6.34 1.7 -6 0 C-3 -1 -3 -1 0 0 Z "
     fill="#081632"
     transform="translate(1256,553)"
     id="path74" />
  <path
     d="M0 0 C1.485 0.99 1.485 0.99 3 2 C1.68 2.33 0.36 2.66 -1 3 C-0.67 2.01 -0.34 1.02 0 0 Z M-4 3 C-3.01 3 -2.02 3 -1 3 C-1 4.32 -1 5.64 -1 7 C-1.99 6.67 -2.98 6.34 -4 6 C-4 5.01 -4 4.02 -4 3 Z "
     fill="#0F2047"
     transform="translate(1716,503)"
     id="path76" />
  <path
     d="M0 0 C1.32 0 2.64 0 4 0 C4.33 1.98 4.66 3.96 5 6 C4.01 6.33 3.02 6.66 2 7 C2 6.01 2 5.02 2 4 C1.34 3.67 0.68 3.34 0 3 C0 2.01 0 1.02 0 0 Z "
     fill="#10224A"
     transform="translate(1010,335)"
     id="path78" />
  <path
     d="M0 0 C2.97 0.33 5.94 0.66 9 1 C6 3 6 3 2.8125 2.625 C1.884375 2.41875 0.95625 2.2125 0 2 C0 1.34 0 0.68 0 0 Z "
     fill="#0E1A36"
     transform="translate(1151,571)"
     id="path80" />
  <path
     d="M0 0 C0.99 0.99 1.98 1.98 3 3 C1.02 3.99 1.02 3.99 -1 5 C-1 4.34 -1 3.68 -1 3 C-1.99 2.67 -2.98 2.34 -4 2 C-2.68 1.34 -1.36 0.68 0 0 Z "
     fill="#11214A"
     transform="translate(1134,562)"
     id="path82" />
  <path
     d="M0 0 C2.4375 0.75 2.4375 0.75 5 2 C5.8125 4.125 5.8125 4.125 6 6 C3.37812506 4.95125002 2.20628639 4.35068687 0.75 1.875 C0.5025 1.25625 0.255 0.6375 0 0 Z "
     fill="#071532"
     transform="translate(785,561)"
     id="path84" />
  <path
     d="M0 0 C1.98 0.495 1.98 0.495 4 1 C4 1.99 4 2.98 4 4 C4.66 4.33 5.32 4.66 6 5 C1.25 4.25 1.25 4.25 -1 2 C-0.67 1.34 -0.34 0.68 0 0 Z "
     fill="#081732"
     transform="translate(1620,561)"
     id="path86" />
  <path
     d="M0 0 C0.66 0 1.32 0 2 0 C1.1875 3.4375 1.1875 3.4375 0 7 C-0.99 7.33 -1.98 7.66 -3 8 C-1.125 2.25 -1.125 2.25 0 0 Z "
     fill="#31BF9A"
     transform="translate(510,367)"
     id="path88" />
  <path
     d="M0 0 C-0.33 1.98 -0.66 3.96 -1 6 C-1.99 6 -2.98 6 -4 6 C-4.33 4.68 -4.66 3.36 -5 2 C-2 0 -2 0 0 0 Z "
     fill="#111F46"
     transform="translate(456,272)"
     id="path90" />
  <path
     d="M0 0 C2.31 0.33 4.62 0.66 7 1 C7 1.66 7 2.32 7 3 C4.36 3 1.72 3 -1 3 C-0.67 2.01 -0.34 1.02 0 0 Z "
     fill="#12244E"
     transform="translate(321,265)"
     id="path92" />
</svg>
